<svg xmlns="http://www.w3.org/2000/svg" xmlns:xlink="http://www.w3.org/1999/xlink" width="310" height="354" viewBox="0 0 310 354">
  <defs>
    <linearGradient id="linear-gradient" x1="0.968" y1="0.033" x2="0.03" y2="0.977" gradientUnits="objectBoundingBox">
      <stop offset="0" stop-color="#f7f9fc"/>
      <stop offset="1" stop-color="#fff"/>
    </linearGradient>
    <linearGradient id="linear-gradient-2" x1="0.5" x2="0.5" y2="1" gradientUnits="objectBoundingBox">
      <stop offset="0" stop-color="#fc0"/>
      <stop offset="1" stop-color="#ff9500"/>
    </linearGradient>
  </defs>
  <g id="drop_off" data-name="drop off" transform="translate(-1205 -1475)">
    <g id="Rectangle_10" data-name="Rectangle 10" transform="translate(1205 1475)" stroke="#ff9500" stroke-width="4" fill="url(#linear-gradient)">
      <rect width="310" height="354" rx="50" stroke="none"/>
      <rect x="2" y="2" width="306" height="350" rx="48" fill="none"/>
    </g>
    <path id="Path_10" data-name="Path 10" d="M7.08-17.88H2.112V0H7.08c5.736,0,9.672-3.552,9.672-8.952C16.752-14.328,12.888-17.88,7.08-17.88ZM5.472-14.808H7.248c3.576,0,6.072,2.112,6.072,5.88,0,3.72-2.5,5.832-6.1,5.832H5.472ZM19.56,0h3.312V-6.792a3.1,3.1,0,0,1,3.264-3.456,5.24,5.24,0,0,1,1.056.1v-3.1a3.942,3.942,0,0,0-.96-.1,4.118,4.118,0,0,0-3.648,2.16h-.048L22.2-13.2H19.56ZM35.016.336A6.674,6.674,0,0,0,41.808-6.6a6.64,6.64,0,0,0-6.792-6.912A6.673,6.673,0,0,0,28.2-6.6,6.679,6.679,0,0,0,35.016.336Zm0-3.024A3.6,3.6,0,0,1,31.536-6.6a3.6,3.6,0,0,1,3.48-3.912A3.583,3.583,0,0,1,38.472-6.6,3.6,3.6,0,0,1,35.016-2.688Zm9.5,7.728h3.312V-2.04a5.094,5.094,0,0,0,4.3,2.376c3.1,0,5.88-2.712,5.88-6.936s-2.856-6.912-5.952-6.912A5.079,5.079,0,0,0,47.64-11.04L47.3-13.2H44.52Zm6.672-7.728c-1.92,0-3.408-1.608-3.408-3.912s1.488-3.912,3.432-3.912a3.574,3.574,0,0,1,3.456,3.888C54.672-4.32,53.184-2.688,51.192-2.688ZM75.384.408a8.992,8.992,0,0,0,9.1-9.36,8.985,8.985,0,0,0-9.1-9.336A9.01,9.01,0,0,0,66.24-8.952,9.016,9.016,0,0,0,75.384.408Zm0-3.12c-2.952,0-5.712-2.256-5.712-6.24,0-3.936,2.736-6.216,5.712-6.216,2.9,0,5.688,2.28,5.688,6.216C81.072-4.992,78.288-2.712,75.384-2.712ZM88.176,0h3.312V-10.44H95.04V-13.2H91.464v-1.224c0-1.464.768-2.088,2.232-2.088a5.851,5.851,0,0,1,1.872.312v-2.856a8.131,8.131,0,0,0-2.424-.384,4.627,4.627,0,0,0-4.944,4.7V-13.2H86.352v2.76h1.824ZM98.04,0h3.312V-10.44H104.9V-13.2h-3.576v-1.224c0-1.464.768-2.088,2.232-2.088a5.851,5.851,0,0,1,1.872.312v-2.856a8.131,8.131,0,0,0-2.424-.384,4.627,4.627,0,0,0-4.944,4.7V-13.2H96.216v2.76H98.04Z" transform="translate(1308 1548)" fill="rgba(31,31,31,0.87)"/>
    <path id="Path_9" data-name="Path 9" d="M8.664,0,5.2-8.928H3.552L.108,0h1.5l.948-2.508H6.192L7.14,0Zm-4.3-7.392L5.76-3.744H2.988ZM12.749,0h1.428V-7.608h2.748v-1.32H10v1.32h2.748Zm13.93,0h1.416V-3.7L31.37-8.928H29.81L27.422-4.992H27.4L24.986-8.928H23.378l3.3,5.244ZM37.867.192a4.458,4.458,0,0,0,4.5-4.656,4.465,4.465,0,0,0-4.5-4.656,4.475,4.475,0,0,0-4.512,4.656A4.468,4.468,0,0,0,37.867.192Zm0-1.344a3.09,3.09,0,0,1-3.048-3.312,3.1,3.1,0,0,1,3.048-3.324A3.1,3.1,0,0,1,40.9-4.464,3.089,3.089,0,0,1,37.867-1.152ZM49.32.192a3.383,3.383,0,0,0,3.552-3.624v-5.5h-1.44v5.52A2.027,2.027,0,0,1,49.32-1.152,1.983,1.983,0,0,1,47.28-3.4V-8.928H45.84v5.5A3.34,3.34,0,0,0,49.32.192ZM60.065-3.492A2.683,2.683,0,0,0,62.717-6.18c0-1.68-1.176-2.748-3.276-2.748H56.9V0h1.44V-3.444h.1L61.325,0h1.788ZM58.337-4.6V-7.608h1.044c1.2,0,1.884.552,1.884,1.488S60.665-4.6,59.309-4.6ZM73.8-8.928h-2.34V0H73.8c2.844,0,4.8-1.764,4.8-4.464S76.694-8.928,73.8-8.928Zm-.9,1.32h.972a2.987,2.987,0,0,1,3.264,3.144A3,3,0,0,1,73.862-1.32H72.9ZM86.155.192a4.458,4.458,0,0,0,4.5-4.656,4.465,4.465,0,0,0-4.5-4.656,4.475,4.475,0,0,0-4.512,4.656A4.468,4.468,0,0,0,86.155.192Zm0-1.344a3.09,3.09,0,0,1-3.048-3.312,3.1,3.1,0,0,1,3.048-3.324,3.1,3.1,0,0,1,3.036,3.324A3.089,3.089,0,0,1,86.155-1.152ZM98.2.192a4.458,4.458,0,0,0,4.5-4.656A4.465,4.465,0,0,0,98.2-9.12a4.475,4.475,0,0,0-4.512,4.656A4.468,4.468,0,0,0,98.2.192Zm0-1.344a3.09,3.09,0,0,1-3.048-3.312A3.1,3.1,0,0,1,98.2-7.788a3.1,3.1,0,0,1,3.036,3.324A3.089,3.089,0,0,1,98.2-1.152Zm11.249-2.34A2.683,2.683,0,0,0,112.1-6.18c0-1.68-1.176-2.748-3.276-2.748h-2.544V0h1.44V-3.444h.1L110.7,0h1.788Zm-1.728-1.1V-7.608h1.044c1.2,0,1.884.552,1.884,1.488s-.6,1.524-1.956,1.524ZM123.4-9.12c-1.7,0-2.94.972-2.94,2.52,0,1.488,1.152,2.04,2.376,2.58,1.152.5,1.8.852,1.8,1.6,0,.828-.768,1.32-1.716,1.32a3.742,3.742,0,0,1-2.484-1.02v1.5a4.425,4.425,0,0,0,2.58.816c1.764,0,3.084-1.02,3.084-2.676,0-1.548-1.2-2.124-2.52-2.688-1.116-.492-1.692-.816-1.692-1.5,0-.756.7-1.152,1.572-1.152a3.844,3.844,0,0,1,2.148.7v-1.4A4.353,4.353,0,0,0,123.4-9.12ZM137.047,0l-3.468-8.928h-1.644L128.491,0h1.5l.948-2.508h3.636L135.523,0Zm-4.3-7.392,1.392,3.648h-2.772Zm9.173.516h.036L144.228,0h1.26l2.268-6.924h.036L148.74,0h1.4l-1.332-8.928H147.1l-2.2,6.756h-.012l-2.256-6.756h-1.716L139.572,0h1.392ZM153.713,0h5.172V-1.308h-3.732V-3.924h3.432V-5.16h-3.432V-7.62h3.732V-8.928h-5.172ZM170.03-8.928h-2.34V0h2.34c2.844,0,4.8-1.764,4.8-4.464S172.922-8.928,170.03-8.928Zm-.9,1.32h.972a2.987,2.987,0,0,1,3.264,3.144A3,3,0,0,1,170.09-1.32h-.96ZM185.7,0l-3.468-8.928h-1.644L177.139,0h1.5l.948-2.508h3.636L184.171,0Zm-4.3-7.392,1.392,3.648h-2.772ZM190.128,0h1.416V-3.7l3.276-5.232h-1.56l-2.388,3.936h-.024l-2.412-3.936h-1.608l3.3,5.244Z" transform="translate(1263 1793)" fill="rgba(31,31,31,0.6)"/>
    <g id="noun_delivery_2964595" transform="translate(1293 1606.128)">
      <path id="Path_1" data-name="Path 1" d="M104.145,104.872a10.064,10.064,0,1,1,10.064-10.064,10.064,10.064,0,0,1-10.064,10.064Zm25.18-37.484V89.4a4.121,4.121,0,0,1-4.121,4.121h-5.535a15.576,15.576,0,0,0-31.047,0H50.661a15.576,15.576,0,0,0-31.048,0h-2A4.121,4.121,0,0,1,13.49,89.4V67.767H29.242a5.9,5.9,0,0,0,5.868-6.474,6.066,6.066,0,0,0-6.121-5.316H9.625a4.625,4.625,0,1,1,0-9.251H46.133A5.9,5.9,0,0,0,52,40.252a6.066,6.066,0,0,0-6.121-5.316H13.49V24.6a5.723,5.723,0,0,1,5.724-5.724H88.851A5.723,5.723,0,0,1,94.575,24.6V42.039h21.883a2.572,2.572,0,0,1,2.3,1.421L128.077,62.1A11.826,11.826,0,0,1,129.325,67.387Zm-5.148-1.574-9.313-18.626H94.575V67.314h29.6ZM45.2,94.808a10.063,10.063,0,1,0-10.063,10.064A10.063,10.063,0,0,0,45.2,94.808Z" transform="translate(0 0)" fill="url(#linear-gradient-2)"/>
    </g>
  </g>
</svg>
