<svg xmlns="http://www.w3.org/2000/svg" xmlns:xlink="http://www.w3.org/1999/xlink" width="310" height="354" viewBox="0 0 310 354">
  <defs>
    <linearGradient id="linear-gradient" x1="0.971" y1="0.025" x2="0.048" y2="0.977" gradientUnits="objectBoundingBox">
      <stop offset="0" stop-color="#f7f9fc"/>
      <stop offset="1" stop-color="#fff"/>
    </linearGradient>
    <linearGradient id="linear-gradient-2" x1="0.5" x2="0.5" y2="1" gradientUnits="objectBoundingBox">
      <stop offset="0" stop-color="#5ac8fa"/>
      <stop offset="1" stop-color="#007aff"/>
    </linearGradient>
  </defs>
  <g id="wash" transform="translate(-785 -1475)">
    <g id="Rectangle_9" data-name="Rectangle 9" transform="translate(785 1475)" stroke="#007aff" stroke-width="4" fill="url(#linear-gradient)">
      <rect width="310" height="354" rx="50" stroke="none"/>
      <rect x="2" y="2" width="306" height="350" rx="48" fill="none"/>
    </g>
    <path id="Path_7" data-name="Path 7" d="M17.4,0h3.432l5.232-17.88H22.7L19.08-4.128h-.024l-4.2-13.752H11.688L7.56-4.152H7.512L3.768-17.88H.336L5.664,0H9.192l4.08-13.3H13.3ZM32.376.336a5.121,5.121,0,0,0,4.464-2.5L37.176,0H39.96V-13.2H37.176l-.336,2.16a5.1,5.1,0,0,0-4.464-2.472c-3,0-5.9,2.736-5.9,6.936C26.472-2.424,29.376.336,32.376.336Zm.912-3.024A3.6,3.6,0,0,1,29.808-6.6a3.6,3.6,0,0,1,3.48-3.912C35.232-10.512,36.7-8.9,36.7-6.6S35.232-2.688,33.288-2.688ZM48.1-13.512c-3.24,0-5.184,1.728-5.184,4.1s1.944,3.192,4.08,3.792c1.776.528,2.808.84,2.808,1.776,0,.864-.84,1.416-2.328,1.416A6.7,6.7,0,0,1,42.96-4.152v3.144A8.036,8.036,0,0,0,47.616.336c3.408,0,5.4-1.656,5.4-4.2,0-2.736-2.3-3.456-4.416-4.008C46.992-8.3,46.128-8.64,46.128-9.48c0-.792.744-1.3,2.088-1.3A7.069,7.069,0,0,1,52.2-9.552v-2.9A7.934,7.934,0,0,0,48.1-13.512Zm10.9-5.736H55.68V0h3.312V-7.968a2.43,2.43,0,0,1,2.64-2.544c1.584,0,2.376.864,2.376,2.688V0H67.32V-8.784c0-3.072-1.824-4.728-4.68-4.728a4.506,4.506,0,0,0-3.6,1.68h-.048ZM69.7,3.216h2.4A16.262,16.262,0,0,0,73.68-2.856V-3.888h-3V-2.64A20.1,20.1,0,0,1,69.7,3.216Zm18.84-21.1H83.568V0h4.968c5.736,0,9.672-3.552,9.672-8.952C98.208-14.328,94.344-17.88,88.536-17.88Zm-1.608,3.072H88.7c3.576,0,6.072,2.112,6.072,5.88,0,3.72-2.5,5.832-6.1,5.832H86.928ZM101.016,0h3.312V-6.792a3.1,3.1,0,0,1,3.264-3.456,5.24,5.24,0,0,1,1.056.1v-3.1a3.942,3.942,0,0,0-.96-.1,4.118,4.118,0,0,0-3.648,2.16h-.048l-.336-2.016h-2.64Zm21.576-13.2h-3.408l-3.1,9.12h-.072l-3.072-9.12h-3.576L114.336-.408,112.08,5.04h3.336ZM146.448,0,142.68-3.888l3.7-5.736h-3.168l-2.352,3.816L137.76-9c2.112-1.056,3.912-2.352,3.912-4.752,0-2.592-2.112-4.536-5.136-4.536-3.072,0-5.3,1.992-5.3,4.488,0,1.56.912,2.76,2.232,4.2-1.968,1.008-3.576,2.328-3.576,4.8,0,3.024,2.424,5.184,5.88,5.184A7.271,7.271,0,0,0,141-1.8L142.752,0Zm-9.912-15.744a2.144,2.144,0,0,1,2.328,2.112c0,1.3-1.176,2.088-2.808,2.856-1.3-1.392-1.848-2.16-1.848-2.976A2.113,2.113,0,0,1,136.536-15.744Zm-.5,13.512a2.765,2.765,0,0,1-3.024-2.712c0-1.344.888-2.136,2.208-2.832l4.008,4.128A4.553,4.553,0,0,1,136.032-2.232ZM155.4,0h3.36V-6.84h6.816V-9.768H158.76v-5.04h7.224V-17.88H155.4Zm19.368.336A6.674,6.674,0,0,0,181.56-6.6a6.64,6.64,0,0,0-6.792-6.912A6.673,6.673,0,0,0,167.952-6.6,6.679,6.679,0,0,0,174.768.336Zm0-3.024a3.6,3.6,0,0,1-3.48-3.912,3.6,3.6,0,0,1,3.48-3.912A3.583,3.583,0,0,1,178.224-6.6,3.6,3.6,0,0,1,174.768-2.688ZM184.32,0h3.312V-19.248H184.32Zm12,.336a5.1,5.1,0,0,0,4.416-2.5L201.072,0h2.784V-19.248h-3.312v8.088a4.878,4.878,0,0,0-4.248-2.352c-3.1,0-5.928,2.688-5.928,6.912S193.248.336,196.32.336Zm.864-3.024A3.6,3.6,0,0,1,193.7-6.6a3.6,3.6,0,0,1,3.48-3.912c1.944,0,3.408,1.608,3.408,3.912S199.128-2.688,197.184-2.688ZM208.8.144A1.936,1.936,0,0,0,210.744-1.8,1.921,1.921,0,0,0,208.8-3.744,1.906,1.906,0,0,0,206.856-1.8,1.921,1.921,0,0,0,208.8.144Z" transform="translate(834 1548)" fill="rgba(31,31,31,0.87)"/>
    <path id="Path_8" data-name="Path 8" d="M3.468-8.928H1.128V0h2.34c2.844,0,4.8-1.764,4.8-4.464S6.36-8.928,3.468-8.928Zm-.9,1.32H3.54A2.987,2.987,0,0,1,6.8-4.464,3,3,0,0,1,3.528-1.32h-.96ZM15.821.192a4.458,4.458,0,0,0,4.5-4.656,4.465,4.465,0,0,0-4.5-4.656,4.475,4.475,0,0,0-4.512,4.656A4.468,4.468,0,0,0,15.821.192Zm0-1.344a3.09,3.09,0,0,1-3.048-3.312,3.1,3.1,0,0,1,3.048-3.324,3.1,3.1,0,0,1,3.036,3.324A3.089,3.089,0,0,1,15.821-1.152Zm15.4-7.776H29.83v6.516h-.012l-4.5-6.516H23.9V0h1.38V-6.636h.012L29.878,0h1.344ZM35.354,0h5.172V-1.308H36.794V-3.924h3.432V-5.16H36.794V-7.62h3.732V-8.928H35.354ZM48.216-1.932V-.444a2.666,2.666,0,0,0,1.7.588,2.53,2.53,0,0,0,2.628-2.76V-8.928h-1.44V-2.82c0,1.08-.54,1.632-1.392,1.632A1.984,1.984,0,0,1,48.216-1.932ZM59.969.192a3.383,3.383,0,0,0,3.552-3.624v-5.5h-1.44v5.52a2.027,2.027,0,0,1-2.112,2.256A1.983,1.983,0,0,1,57.929-3.4V-8.928h-1.44v5.5A3.34,3.34,0,0,0,59.969.192ZM70.1-9.12c-1.7,0-2.94.972-2.94,2.52,0,1.488,1.152,2.04,2.376,2.58,1.152.5,1.8.852,1.8,1.6,0,.828-.768,1.32-1.716,1.32a3.742,3.742,0,0,1-2.484-1.02v1.5a4.425,4.425,0,0,0,2.58.816c1.764,0,3.084-1.02,3.084-2.676,0-1.548-1.2-2.124-2.52-2.688-1.116-.492-1.692-.816-1.692-1.5,0-.756.7-1.152,1.572-1.152a3.844,3.844,0,0,1,2.148.7v-1.4A4.353,4.353,0,0,0,70.1-9.12ZM78.17,0H79.6V-7.608h2.748v-1.32H75.422v1.32H78.17ZM90.288,0h5.28V-1.32h-3.84V-8.928h-1.44Zm8.549,0h1.44V-8.928h-1.44Zm12.6,0-4.02-4.512,3.948-4.416h-1.728l-3.792,4.3v-4.3h-1.44V0h1.44V-4.332L109.654,0Zm3.029,0h5.172V-1.308H115.91V-3.924h3.432V-5.16H115.91V-7.62h3.732V-8.928H114.47Zm15.754-6.876h.036L132.528,0h1.26l2.268-6.924h.036L137.04,0h1.4l-1.332-8.928H135.4l-2.2,6.756h-.012l-2.256-6.756h-1.716L127.872,0h1.392ZM145.937.192a4.458,4.458,0,0,0,4.5-4.656,4.465,4.465,0,0,0-4.5-4.656,4.475,4.475,0,0,0-4.512,4.656A4.468,4.468,0,0,0,145.937.192Zm0-1.344a3.091,3.091,0,0,1-3.048-3.312,3.1,3.1,0,0,1,3.048-3.324,3.1,3.1,0,0,1,3.036,3.324A3.089,3.089,0,0,1,145.937-1.152Zm9.821-5.724h.036L158.062,0h1.26l2.268-6.924h.036L162.574,0h1.4l-1.332-8.928H160.93l-2.2,6.756h-.012l-2.256-6.756H154.75L153.406,0H154.8Z" transform="translate(858 1793)" fill="rgba(31,31,31,0.6)"/>
    <g id="noun_washer_3194762" transform="translate(889.9 1617.5)">
      <g id="Group_26" data-name="Group 26" transform="translate(10.1 2.5)">
        <path id="Path_2" data-name="Path 2" d="M50,37.8A20.2,20.2,0,1,0,70.2,58,20.208,20.208,0,0,0,50,37.8Zm0,4.9A15.283,15.283,0,0,1,65.2,56.9c-.2,0-.4.1-.7.1a3.315,3.315,0,0,1-2.4-.9,4.168,4.168,0,0,0-2.7-1,4.244,4.244,0,0,0-2.8,1,3.8,3.8,0,0,1-2.4.9,3.5,3.5,0,0,1-2.4-.9,4.244,4.244,0,0,0-2.8-1,3.763,3.763,0,0,0-2.7,1,3.8,3.8,0,0,1-2.4.9,3.5,3.5,0,0,1-2.4-.9,4.244,4.244,0,0,0-2.8-1,3.763,3.763,0,0,0-2.7,1c-.4.2-.7.5-1.1.7A15.173,15.173,0,0,1,50,42.7Z" transform="translate(-10.1 -1.853)" fill="url(#linear-gradient-2)"/>
        <path id="Path_3" data-name="Path 3" d="M83.9,18.668H80.2L79,7.856A5.975,5.975,0,0,0,73.1,2.5H26.8a5.975,5.975,0,0,0-5.9,5.356L19.7,18.668H16a5.942,5.942,0,0,0-5.9,5.962V92.538A5.942,5.942,0,0,0,16,98.5H83.8a5.942,5.942,0,0,0,5.9-5.962V24.631A5.8,5.8,0,0,0,83.9,18.668ZM54.8,11.393a2.123,2.123,0,0,1,2.1-2.122H68a2.124,2.124,0,0,1,2.1,2.122v3.133A2.123,2.123,0,0,1,68,16.647H57a2.124,2.124,0,0,1-2.1-2.122V11.393ZM46,9.271a3.739,3.739,0,1,1-3.7,3.739A3.711,3.711,0,0,1,46,9.271Zm-12.5,0a3.711,3.711,0,0,1,3.7,3.739,3.649,3.649,0,0,1-3.7,3.739,3.739,3.739,0,0,1,0-7.478ZM50,84.858A26.275,26.275,0,1,1,76,58.584,26.15,26.15,0,0,1,50,84.858Z" transform="translate(-10.1 -2.5)" fill="url(#linear-gradient-2)"/>
      </g>
    </g>
  </g>
</svg>
