<svg xmlns="http://www.w3.org/2000/svg" xmlns:xlink="http://www.w3.org/1999/xlink" width="31.515" height="48" viewBox="0 0 31.515 48"><defs><style>.a{fill:url(#a);}</style><linearGradient id="a" x1="1" x2="0" y2="1" gradientUnits="objectBoundingBox"><stop offset="0" stop-color="#5ac8fa"/><stop offset="1" stop-color="#5856d6"/></linearGradient></defs><path class="a" d="M21.515,48H10A10.011,10.011,0,0,1,0,38V10A10.011,10.011,0,0,1,10,0H21.515a10.011,10.011,0,0,1,10,10V38A10.011,10.011,0,0,1,21.515,48ZM9.078,36.353a1.685,1.685,0,0,0-.82.214,1.631,1.631,0,0,0-.5.428l-.022.029a1.633,1.633,0,0,0,.3,2.306l.013.01a10.068,10.068,0,0,0,5.5,2.046c.205.013.413.019.619.019a10.2,10.2,0,0,0,3.186-.509,10.143,10.143,0,0,0,1.775-.779,10,10,0,0,0,1.614-1.125,10.115,10.115,0,0,0,1.4-1.464,9.872,9.872,0,0,0,1.316-9.88,3.3,3.3,0,0,1,.454-3.3l1.376-1.769.011-.014a1.644,1.644,0,0,0-.9-2.594,1.686,1.686,0,0,0-1.24.159,1.63,1.63,0,0,0-.5.428l-.01.013a6.751,6.751,0,0,1-9.392,1.2A6.58,6.58,0,0,1,10.7,17.353a6.512,6.512,0,0,1,1.326-4.873A6.755,6.755,0,0,1,21.4,11.272l.015.011a1.625,1.625,0,0,0,.592.288,1.649,1.649,0,0,0,.419.054,1.73,1.73,0,0,0,.216-.014,1.657,1.657,0,0,0,.6-.2,1.63,1.63,0,0,0,.5-.428l.023-.03A1.631,1.631,0,0,0,23.9,9.14a1.626,1.626,0,0,0-.433-.493l-.012-.009a10,10,0,0,0-1.7-1.041,10.055,10.055,0,0,0-3.769-.983c-.205-.012-.414-.019-.619-.019A10.188,10.188,0,0,0,14.18,7.1a10.143,10.143,0,0,0-1.775.779,10.005,10.005,0,0,0-3.01,2.59,9.855,9.855,0,0,0-1.724,8.7,10.076,10.076,0,0,0,.4,1.147,3.307,3.307,0,0,1-.458,3.293L6.22,25.4l-.012.015a1.631,1.631,0,0,0-.331,1.215,1.64,1.64,0,0,0,.635,1.091,1.669,1.669,0,0,0,.592.288,1.7,1.7,0,0,0,.636.04,1.658,1.658,0,0,0,.6-.2,1.631,1.631,0,0,0,.5-.428l.009-.012a6.752,6.752,0,0,1,9.391-1.2A6.58,6.58,0,0,1,20.8,30.625,6.51,6.51,0,0,1,19.479,35.5,6.754,6.754,0,0,1,10.1,36.706l-.014-.011a1.671,1.671,0,0,0-1.012-.342Z"/></svg>