<svg xmlns="http://www.w3.org/2000/svg" xmlns:xlink="http://www.w3.org/1999/xlink" width="310" height="354" viewBox="0 0 310 354">
  <defs>
    <linearGradient id="linear-gradient" x1="0.973" y1="0.033" x2="0.053" y2="1" gradientUnits="objectBoundingBox">
      <stop offset="0" stop-color="#f7f9fc"/>
      <stop offset="1" stop-color="#fff"/>
    </linearGradient>
    <linearGradient id="linear-gradient-2" x1="0.5" x2="0.5" y2="1" gradientUnits="objectBoundingBox">
      <stop offset="0" stop-color="#ff3b30"/>
      <stop offset="1" stop-color="#ff2d55"/>
    </linearGradient>
  </defs>
  <g id="schedule" transform="translate(-405 -1475)">
    <g id="Rectangle_6" data-name="Rectangle 6" transform="translate(405 1475)" stroke="#ff3b30" stroke-width="4" fill="url(#linear-gradient)">
      <rect width="310" height="354" rx="50" stroke="none"/>
      <rect x="2" y="2" width="306" height="350" rx="48" fill="none"/>
    </g>
    <path id="Path_12" data-name="Path 12" d="M7.488-18.264c-3.6,0-6.1,2.064-6.1,5.184,0,3.072,2.472,4.224,4.824,5.208C8.328-6.96,9.6-6.312,9.6-4.968,9.6-3.5,8.232-2.616,6.408-2.616A7.653,7.653,0,0,1,1.392-4.632v3.384A9.277,9.277,0,0,0,6.7.384c3.72,0,6.36-2.16,6.36-5.472,0-3.264-2.592-4.392-5.184-5.472C5.808-11.424,4.728-12,4.728-13.224c0-1.32,1.272-2.04,2.928-2.04A7.9,7.9,0,0,1,12.024-13.9v-3.168A8.932,8.932,0,0,0,7.488-18.264ZM18.384-6.6A3.794,3.794,0,0,1,22.3-10.512,5.747,5.747,0,0,1,25.7-9.48V-12.6a7.606,7.606,0,0,0-3.816-.912,6.7,6.7,0,0,0-6.84,6.888,6.718,6.718,0,0,0,6.84,6.96A8.084,8.084,0,0,0,25.7-.6V-3.7A5.7,5.7,0,0,1,22.32-2.688,3.786,3.786,0,0,1,18.384-6.6ZM31.9-19.248H28.584V0H31.9V-7.968a2.43,2.43,0,0,1,2.64-2.544c1.584,0,2.376.864,2.376,2.688V0h3.312V-8.784c0-3.072-1.824-4.728-4.68-4.728a4.506,4.506,0,0,0-3.6,1.68H31.9ZM55.368-6.84c0-4.368-2.688-6.672-5.976-6.672-3.6,0-6.552,2.736-6.552,6.96C42.84-2.52,45.5.336,49.968.336a8.574,8.574,0,0,0,4.584-1.3V-3.792a7.333,7.333,0,0,1-4.2,1.44A4.139,4.139,0,0,1,46.008-5.64h9.264A8.685,8.685,0,0,0,55.368-6.84Zm-9.384-.888a3.524,3.524,0,0,1,3.384-3.12c1.536,0,2.784,1.08,2.832,3.12ZM63.264.336a5.1,5.1,0,0,0,4.416-2.5L68.016,0H70.8V-19.248H67.488v8.088a4.878,4.878,0,0,0-4.248-2.352c-3.1,0-5.928,2.688-5.928,6.912S60.192.336,63.264.336Zm.864-3.024A3.6,3.6,0,0,1,60.648-6.6a3.6,3.6,0,0,1,3.48-3.912c1.944,0,3.408,1.608,3.408,3.912S66.072-2.688,64.128-2.688ZM79.9.336c3.624,0,5.856-2.328,5.856-5.616V-13.2H82.44v7.92A2.338,2.338,0,0,1,79.9-2.688a2.289,2.289,0,0,1-2.472-2.568V-13.2H74.112v7.944C74.112-1.992,76.272.336,79.9.336ZM89.088,0H92.4V-19.248H89.088Zm18.576-6.84c0-4.368-2.688-6.672-5.976-6.672-3.6,0-6.552,2.736-6.552,6.96,0,4.032,2.664,6.888,7.128,6.888a8.574,8.574,0,0,0,4.584-1.3V-3.792a7.333,7.333,0,0,1-4.2,1.44A4.139,4.139,0,0,1,98.3-5.64h9.264A8.685,8.685,0,0,0,107.664-6.84ZM98.28-7.728a3.524,3.524,0,0,1,3.384-3.12c1.536,0,2.784,1.08,2.832,3.12ZM116.9,0h3.36V-5.376h1.8c4.656,0,7.344-2.76,7.344-6.384,0-3.792-2.808-6.12-7.512-6.12H116.9Zm5.328-8.424h-1.968v-6.384h1.944c2.28,0,3.816,1.1,3.816,3.168C126.024-9.6,124.488-8.424,122.232-8.424Zm11.352-6.984a1.814,1.814,0,0,0,1.848-1.824,1.834,1.834,0,0,0-1.848-1.848,1.839,1.839,0,0,0-1.872,1.848A1.819,1.819,0,0,0,133.584-15.408ZM131.928,0h3.312V-13.2h-3.312Zm9.384-6.6a3.794,3.794,0,0,1,3.912-3.912,5.747,5.747,0,0,1,3.408,1.032V-12.6a7.606,7.606,0,0,0-3.816-.912,6.7,6.7,0,0,0-6.84,6.888,6.718,6.718,0,0,0,6.84,6.96A8.084,8.084,0,0,0,148.632-.6V-3.7a5.7,5.7,0,0,1-3.384,1.008A3.786,3.786,0,0,1,141.312-6.6Zm22.8,6.6L158.5-6.912l5.448-6.288H159.96l-5.136,6.1V-19.248h-3.312V0h3.312V-6.5L160.008,0Zm7.44.336c3.624,0,5.856-2.328,5.856-5.616V-13.2H174.1v7.92a2.338,2.338,0,0,1-2.544,2.592,2.289,2.289,0,0,1-2.472-2.568V-13.2h-3.312v7.944C165.768-1.992,167.928.336,171.552.336Zm9.144,4.7h3.312V-2.04A5.094,5.094,0,0,0,188.3.336c3.1,0,5.88-2.712,5.88-6.936s-2.856-6.912-5.952-6.912a5.079,5.079,0,0,0-4.416,2.472l-.336-2.16H180.7Zm6.672-7.728c-1.92,0-3.408-1.608-3.408-3.912s1.488-3.912,3.432-3.912a3.574,3.574,0,0,1,3.456,3.888C190.848-4.32,189.36-2.688,187.368-2.688Z" transform="translate(463 1548)" fill="rgba(31,31,31,0.87)"/>
    <path id="Path_11" data-name="Path 11" d="M6.24-2.616c0-1.608-1.26-2.112-2.46-2.532-.864-.3-1.6-.576-1.6-1.284,0-.612.552-1.092,1.488-1.092a3.693,3.693,0,0,1,2.052.672V-8.3A4.723,4.723,0,0,0,4-8.82v-.948H2.808V-8.76A2.409,2.409,0,0,0,.732-6.444c0,1.536,1.212,2.052,2.4,2.46.9.312,1.644.6,1.644,1.356s-.72,1.26-1.68,1.26a3.351,3.351,0,0,1-2.364-1V-.792a4.323,4.323,0,0,0,2.076.708V.864H4V-.144A2.6,2.6,0,0,0,6.24-2.616ZM11.225,0h1.416V-8.988h-.12L9.1-7.608v1.452l2.124-.888Zm8.549-9.12A3.086,3.086,0,0,0,16.582-6a2.921,2.921,0,0,0,2.964,2.892,3.175,3.175,0,0,0,.324-.024L17.362,0h1.7l2.6-3.216A4.446,4.446,0,0,0,22.942-6.06,3.011,3.011,0,0,0,19.774-9.12Zm1.128,4.7a2.761,2.761,0,0,1-1.02.2A1.808,1.808,0,0,1,18-6.036a1.757,1.757,0,0,1,1.788-1.8,1.738,1.738,0,0,1,1.764,1.8A2.56,2.56,0,0,1,20.9-4.416ZM31.543,0h1.44V-3.576h3.492v-1.26H32.983V-7.608h3.684v-1.32H31.543ZM44.124.192a4.458,4.458,0,0,0,4.5-4.656,4.465,4.465,0,0,0-4.5-4.656,4.475,4.475,0,0,0-4.512,4.656A4.468,4.468,0,0,0,44.124.192Zm0-1.344a3.09,3.09,0,0,1-3.048-3.312,3.1,3.1,0,0,1,3.048-3.324A3.1,3.1,0,0,1,47.16-4.464,3.089,3.089,0,0,1,44.124-1.152Zm11.249-2.34A2.683,2.683,0,0,0,58.025-6.18c0-1.68-1.176-2.748-3.276-2.748H52.2V0h1.44V-3.444h.1L56.633,0h1.788ZM53.645-4.6V-7.608h1.044c1.2,0,1.884.552,1.884,1.488S55.973-4.6,54.617-4.6ZM68.21,0h1.416V-8.988h-.12l-3.42,1.38v1.452l2.124-.888ZM79.224,0H84.5V-1.32h-3.84V-8.928h-1.44ZM91.313.192a4.458,4.458,0,0,0,4.5-4.656,4.465,4.465,0,0,0-4.5-4.656A4.475,4.475,0,0,0,86.8-4.464,4.468,4.468,0,0,0,91.313.192Zm0-1.344a3.09,3.09,0,0,1-3.048-3.312,3.1,3.1,0,0,1,3.048-3.324,3.1,3.1,0,0,1,3.036,3.324A3.089,3.089,0,0,1,91.313-1.152ZM106.666,0,103.2-8.928h-1.644L98.11,0h1.5l.948-2.508h3.636L105.142,0Zm-4.3-7.392,1.392,3.648H100.99Zm9.737-1.536h-2.34V0h2.34c2.844,0,4.8-1.764,4.8-4.464S115-8.928,112.106-8.928Zm-.9,1.32h.972a2.987,2.987,0,0,1,3.264,3.144,3,3,0,0,1-3.276,3.144h-.96ZM120.571.06a.856.856,0,0,0,.876-.864.858.858,0,0,0-.876-.876A.858.858,0,0,0,119.7-.8.856.856,0,0,0,120.571.06Zm14.71-2.676c0-1.608-1.26-2.112-2.46-2.532-.864-.3-1.6-.576-1.6-1.284,0-.612.552-1.092,1.488-1.092a3.693,3.693,0,0,1,2.052.672V-8.3a4.723,4.723,0,0,0-1.728-.516v-.948h-1.188V-8.76a2.409,2.409,0,0,0-2.076,2.316c0,1.536,1.212,2.052,2.4,2.46.9.312,1.644.6,1.644,1.356s-.72,1.26-1.68,1.26a3.351,3.351,0,0,1-2.364-1V-.792a4.323,4.323,0,0,0,2.076.708V.864h1.188V-.144A2.6,2.6,0,0,0,135.281-2.616ZM140.266,0h1.416V-8.988h-.12l-3.42,1.38v1.452l2.124-.888Zm12.4-3.252h-1.5V-8.928h-1.224l-4.428,6.036v.852h4.308V0h1.344V-2.04h1.5Zm-5.58,0v-.024l2.736-3.732v3.756ZM168.324,0l-3.468-8.928h-1.644L159.768,0h1.5l.948-2.508h3.636L166.8,0Zm-4.3-7.392,1.392,3.648h-2.772ZM171.425,0h1.44V-3.576h3.492v-1.26h-3.492V-7.608h3.684v-1.32h-5.124Zm10.613,0h1.428V-7.608h2.748v-1.32H179.29v1.32h2.748Zm7.433,0h5.172V-1.308H190.91V-3.924h3.432V-5.16H190.91V-7.62h3.732V-8.928H189.47Zm12.113-3.492a2.683,2.683,0,0,0,2.652-2.688c0-1.68-1.176-2.748-3.276-2.748h-2.544V0h1.44V-3.444h.1L202.843,0h1.788Zm-1.728-1.1V-7.608H200.9c1.2,0,1.884.552,1.884,1.488s-.6,1.524-1.956,1.524ZM214.5,0h1.428V-7.608h2.748v-1.32h-6.924v1.32H214.5Zm13.181,0h1.44V-8.928h-1.44v3.756h-4.308V-8.928h-1.44V0h1.44V-3.84h4.308Zm13.109,0-3.468-8.928h-1.644L232.238,0h1.5l.948-2.508h3.636L239.27,0Zm-4.3-7.392,1.392,3.648h-2.772ZM244.879,0h1.428V-7.608h2.748v-1.32h-6.924v1.32h2.748Z" transform="translate(437 1793)" fill="rgba(31,31,31,0.6)"/>
    <g id="noun_schedule_3183973" transform="translate(508 1616)">
      <g id="_10" data-name="10" transform="translate(2 4)">
        <path id="Path_4" data-name="Path 4" d="M35.231,33.538A33.231,33.231,0,1,0,68.462,66.769,33.231,33.231,0,0,0,35.231,33.538Zm3.692,33.231A3.692,3.692,0,0,1,38.3,68.8L30.911,79.877a3.692,3.692,0,1,1-6.129-4.1l6.757-10.117V48.308a3.692,3.692,0,0,1,7.385,0Zm40.615-48a3.692,3.692,0,0,1-3.692-3.692V7.692a3.692,3.692,0,0,1,7.385,0v7.385A3.692,3.692,0,0,1,79.538,18.769Zm-25.846,0A3.692,3.692,0,0,1,50,15.077V7.692a3.692,3.692,0,1,1,7.385,0v7.385A3.692,3.692,0,0,1,53.692,18.769Zm-25.846,0a3.692,3.692,0,0,1-3.692-3.692V7.692a3.692,3.692,0,0,1,7.385,0v7.385A3.692,3.692,0,0,1,27.846,18.769Zm73.846-3.692V85.231A3.692,3.692,0,0,1,98,88.923H64.769A36.923,36.923,0,1,0,5.692,44.615V15.077a3.692,3.692,0,0,1,3.692-3.692H20.462v3.692a7.385,7.385,0,1,0,14.769,0V11.385H46.308v3.692a7.385,7.385,0,0,0,14.769,0V11.385H72.154v3.692a7.385,7.385,0,1,0,14.769,0V11.385H98A3.692,3.692,0,0,1,101.692,15.077Z" transform="translate(-2 -4)" fill="url(#linear-gradient-2)"/>
      </g>
    </g>
  </g>
</svg>
